<svg width="22" height="22" viewBox="0 0 22 22" fill="none" xmlns="http://www.w3.org/2000/svg">
<path d="M8.409 11.5199C8.37462 11.3437 7.15861 5.26797 7.11993 5.07461C7.05978 4.77383 6.79337 4.55469 6.48829 4.55469H5.19923C4.88985 4.55469 4.62775 4.76953 4.56759 5.07461C4.52892 5.27226 3.3129 11.3523 3.27853 11.5199C3.20978 11.868 3.43321 12.2074 3.78556 12.2762C4.1336 12.3449 4.47306 12.1215 4.5461 11.7691L4.9586 9.71093H6.73751L7.15001 11.7691C7.21876 12.1172 7.55822 12.3449 7.90626 12.2762C8.25431 12.2074 8.47775 11.868 8.409 11.5199ZM5.21212 8.42187L5.72775 5.84375H5.95978L6.4754 8.42187H5.21212Z" fill="#ffff"/>
<path d="M18.7344 9.71094H16.8008V9.06641C16.8008 8.70977 16.5129 8.42188 16.1562 8.42188C15.7996 8.42188 15.5117 8.70977 15.5117 9.06641V9.71094H13.5781C13.2215 9.71094 12.9336 9.99883 12.9336 10.3555C12.9336 10.7121 13.2215 11 13.5781 11H13.7328C14.098 12.1859 14.6523 13.0969 15.2625 13.8273C14.7684 14.2785 14.2656 14.6523 13.8188 15.009C13.5395 15.2324 13.4965 15.6363 13.7199 15.9156C13.9434 16.1949 14.3473 16.2379 14.6266 16.0144C15.0734 15.6535 15.6148 15.2582 16.1562 14.7555C16.702 15.2539 17.2391 15.6535 17.6859 16.0144C17.9652 16.2379 18.3691 16.1906 18.5926 15.9156C18.816 15.6363 18.7687 15.2324 18.4937 15.009C18.0469 14.6523 17.5484 14.2828 17.05 13.8273C17.6602 13.0969 18.2102 12.1859 18.5797 11H18.7344C19.091 11 19.3789 10.7121 19.3789 10.3555C19.3789 9.99883 19.091 9.71094 18.7344 9.71094ZM16.1562 12.8777C15.7437 12.3621 15.3742 11.7434 15.0949 10.9957H17.2176C16.9383 11.7477 16.5688 12.3621 16.1562 12.8777Z" fill="#ffff"/>
<path d="M20.0664 3.91016H10.768L10.493 1.69297C10.3727 0.726172 9.54766 0 8.57227 0H1.93359C0.867969 0 0 0.867969 0 1.93359V16.1562C0 17.2219 0.867969 18.0898 1.93359 18.0898H7.36914L7.63984 20.307C7.76016 21.2695 8.58516 22 9.56055 22H20.0664C21.132 22 22 21.132 22 20.0664V5.84375C22 4.77812 21.132 3.91016 20.0664 3.91016ZM1.93359 16.8008C1.57695 16.8008 1.28906 16.5129 1.28906 16.1562V1.93359C1.28906 1.57695 1.57695 1.28906 1.93359 1.28906H8.57227C8.89453 1.28906 9.16953 1.52969 9.2125 1.85195C9.30703 2.59961 10.9828 16.0574 11.0773 16.8008H1.93359ZM8.88164 19.843L8.6668 18.0898H10.3984L8.88164 19.843ZM20.7109 20.0664C20.7109 20.423 20.423 20.7109 20.0664 20.7109H9.83555L12.2891 17.8707C12.4137 17.7289 12.4695 17.5398 12.4438 17.3551L10.927 5.19922H20.0664C20.423 5.19922 20.7109 5.48711 20.7109 5.84375V20.0664Z" fill="#ffff"/>
</svg>
